<?xml version="1.0" encoding="UTF-8"?>
<svg width="227px" height="250px" viewBox="0 0 227 250" version="1.1" xmlns="http://www.w3.org/2000/svg" xmlns:xlink="http://www.w3.org/1999/xlink">
    <!-- Generator: Sketch 42 (36781) - http://www.bohemiancoding.com/sketch -->
    <title>hexagon</title>
    <desc>Created with Sketch.</desc>
    <defs>
        <linearGradient x1="50%" y1="5.35130149%" x2="50%" y2="95.8127687%" id="linearGradient-1">
            <stop stop-color="#50FBD9" offset="0%"></stop>
            <stop stop-color="#3A65FF" offset="100%"></stop>
        </linearGradient>
        <path d="M142.671258,162.040269 C140.56396,163.381277 137.690372,164.913857 134.816783,166.063293 C131.943195,167.212728 129.069606,167.787446 126.387591,167.787446 C118.724688,167.787446 111.636504,164.530712 106.655617,159.358253 C101.674731,154.185794 98.4179975,147.09761 98.4179975,139.243135 C98.4179975,131.38866 101.483158,124.300475 106.655617,119.128016 C111.636504,113.955557 118.724688,110.698824 126.387591,110.698824 C126.579163,110.698824 126.962308,110.698824 127.537026,110.890397 C128.494889,111.081969 129.644324,111.465114 130.602187,111.848259 C131.751622,112.231404 132.709485,112.422977 133.475775,112.61455 L135.008356,112.806122 L141.521823,97.0971725 L139.414525,96.5224548 C137.307226,95.9477371 135.008356,95.3730195 132.709485,94.9898743 L126.387591,81.771368 L108.762916,84.4533838 L106.84719,99.012898 C104.165174,100.353906 101.674731,101.886486 99.3758603,103.610639 L85.5826362,98.6297529 L75.0461456,113.189267 L84.0500558,125.066766 C83.092193,127.748781 82.5174753,130.430797 82.1343302,133.304386 L69.1073964,139.62628 L71.9809847,157.442528 L86.7320716,159.358253 C87.8815069,161.848696 89.4140874,164.147567 90.9466678,166.254865 L85.9657813,180.048089 L100.525296,190.58458 L112.402794,181.58067 C114.893237,182.538533 117.575253,183.11325 120.257269,183.496395 L126.579163,196.714902 L144.203838,194.032886 L146.119564,179.473372 C148.80158,178.132364 151.483596,176.599783 153.782466,174.684058 L155.506619,173.34305 L144.012266,161.082406 L142.671258,162.040269 Z M143.629121,176.408211 L142.671258,176.791356 L140.755532,190.58458 L128.686461,192.500305 L122.747712,179.856517 L121.598277,179.856517 C118.533116,179.473372 115.467955,178.707081 112.594367,177.749219 L111.636504,177.366073 L100.525296,185.795266 L90.5635227,178.515509 L95.161264,165.488575 L94.3949738,164.530712 C92.4792483,162.040269 90.7550953,159.549826 89.4140874,156.676237 L89.0309422,155.718375 L75.0461456,153.802649 L73.1304201,141.733578 L85.5826362,135.794829 L85.7742088,134.645393 C86.1573539,131.38866 86.9236441,128.323499 87.8815069,125.258338 L88.264652,124.300475 L79.8354596,113.38084 L87.1152167,103.610639 L100.142151,108.208381 L100.908441,107.633663 C103.398884,105.526365 106.272472,103.802212 109.337633,102.461204 L110.295496,102.078059 L112.211222,88.2848349 L124.471865,86.3691093 L130.410614,98.8213255 L131.368477,99.012898 C133.09263,99.2044706 134.816783,99.5876157 136.349364,99.9707608 L132.709485,108.591526 C131.751622,108.399953 130.602187,108.016808 129.452752,107.633663 C128.878034,107.44209 128.303316,107.250518 127.920171,107.250518 C127.537026,107.058945 127.153881,107.058945 126.579163,107.058945 C117.766826,107.058945 109.912351,110.698824 104.165174,116.446001 C98.4179975,122.38475 94.9696915,130.430797 94.9696915,139.434707 C94.9696915,148.438618 98.6095701,156.484665 104.165174,162.423414 C109.912351,168.362163 117.766826,172.002042 126.579163,171.810469 C129.835897,171.810469 133.09263,171.044179 136.157791,169.703171 C138.648234,168.745308 141.138678,167.404301 143.245976,166.254865 L149.56787,173.151477 C147.843717,174.300913 145.736419,175.450348 143.629121,176.408211 Z" id="path-2"></path>
        <filter x="-50%" y="-50%" width="200%" height="200%" filterUnits="objectBoundingBox" id="filter-3">
            <feOffset dx="0" dy="2" in="SourceAlpha" result="shadowOffsetOuter1"></feOffset>
            <feGaussianBlur stdDeviation="2" in="shadowOffsetOuter1" result="shadowBlurOuter1"></feGaussianBlur>
            <feColorMatrix values="0 0 0 0 0   0 0 0 0 0   0 0 0 0 0  0 0 0 0.5 0" type="matrix" in="shadowBlurOuter1"></feColorMatrix>
        </filter>
        <linearGradient x1="100%" y1="34.8676603%" x2="0%" y2="57.7779495%" id="linearGradient-4">
            <stop stop-color="#FFE656" offset="0%"></stop>
            <stop stop-color="#FF5069" offset="26.3131161%"></stop>
            <stop stop-color="#FF2F8C" offset="65.0233253%"></stop>
            <stop stop-color="#FF20DA" offset="100%"></stop>
        </linearGradient>
        <path d="M104.474524,73.5168663 C111.371136,78.1146076 116.352022,85.5859373 117.69303,94.3982749 C117.884603,95.9308553 118.076175,97.2718632 118.076175,98.8044437 C118.076175,106.084201 115.394159,112.980813 110.987991,118.344844 L106.007104,114.513393 C109.646983,110.298797 111.754281,104.743193 111.754281,98.8044437 C111.754281,97.6550083 111.754281,96.505573 111.562708,95.3561377 C110.413273,88.2679531 106.390249,82.3292039 100.834645,78.6893253 L104.474524,73.5168663 Z M138.957584,91.333114 C139.340729,93.8235572 139.532301,96.3140005 139.723874,98.9960162 C139.723874,111.065087 135.509278,122.559441 128.421093,131.563351 L123.440207,127.7319 C129.762101,119.685852 133.40198,109.724079 133.40198,98.9960162 C133.40198,96.8887181 133.210407,94.5898474 132.827262,92.2909768 C130.911536,79.264043 123.631779,68.1528347 113.670006,61.2562227 L117.309885,56.0837637 C128.612666,64.129811 136.850286,76.3904546 138.957584,91.333114 Z M91.6391624,91.1415414 C92.5970252,91.7162591 93.554888,92.2909768 94.5127507,93.057267 C95.6621861,94.3982749 96.4284763,95.9308553 96.6200489,97.6550083 L96.6200489,98.9960162 C96.6200489,101.486459 95.4706135,103.976903 93.7464605,105.509483 L85.7004132,99.3791614 L91.6391624,91.1415414 Z" id="path-5"></path>
        <filter x="-50%" y="-50%" width="200%" height="200%" filterUnits="objectBoundingBox" id="filter-6">
            <feOffset dx="-3" dy="5" in="SourceAlpha" result="shadowOffsetOuter1"></feOffset>
            <feGaussianBlur stdDeviation="1" in="shadowOffsetOuter1" result="shadowBlurOuter1"></feGaussianBlur>
            <feColorMatrix values="0 0 0 0 0   0 0 0 0 0   0 0 0 0 0  0 0 0 0.259737319 0" type="matrix" in="shadowBlurOuter1"></feColorMatrix>
        </filter>
    </defs>
    <g id="Page-1" stroke="none" stroke-width="1" fill="none" fill-rule="evenodd">
        <polygon id="hexagon" fill="#181743" points="0 62.6796875 113 0 227 62.6796875 227 186.679688 113.5 249.414062 0 186.679688"></polygon>
        <g id="Shape" fill-rule="nonzero" transform="translate(112.307008, 139.243135) rotate(279.000000) translate(-112.307008, -139.243135) ">
            <use fill="black" fill-opacity="1" filter="url(#filter-3)" xlink:href="#path-2"></use>
            <use fill="url(#linearGradient-1)" fill-rule="evenodd" xlink:href="#path-2"></use>
        </g>
        <g id="Combined-Shape" fill-rule="nonzero" transform="translate(112.712144, 93.823557) rotate(279.000000) translate(-112.712144, -93.823557) ">
            <use fill="black" fill-opacity="1" filter="url(#filter-6)" xlink:href="#path-5"></use>
            <use fill="url(#linearGradient-4)" fill-rule="evenodd" xlink:href="#path-5"></use>
        </g>
    </g>
</svg>