<?xml version="1.0" encoding="UTF-8"?>
<svg width="230px" height="250px" viewBox="0 0 230 250" version="1.1" xmlns="http://www.w3.org/2000/svg" xmlns:xlink="http://www.w3.org/1999/xlink">
    <!-- Generator: Sketch 42 (36781) - http://www.bohemiancoding.com/sketch -->
    <title>hexagon</title>
    <desc>Created with Sketch.</desc>
    <defs>
        <linearGradient x1="50%" y1="5.35130149%" x2="50%" y2="95.8127687%" id="linearGradient-1">
            <stop stop-color="#50FBD9" offset="0%"></stop>
            <stop stop-color="#3A65FF" offset="100%"></stop>
        </linearGradient>
        <path d="M97.9649834,77.4188468 C95.7102415,78.7720899 92.6437527,80.3058318 89.5878229,81.43634 C86.5318931,82.5668483 83.4918019,83.0925059 80.6691661,83.0185926 C72.6044924,82.8074117 65.2344211,79.184583 60.1349303,73.6036607 C55.0354395,68.0227384 51.8032956,60.4731633 52.019756,52.2068727 C52.2362164,43.9405822 55.6574282,36.5652314 61.2436301,31.2641237 C66.6282151,25.9577366 74.1777902,22.7255926 82.2424639,22.9367735 C82.4440808,22.942053 82.8473144,22.9526121 83.4468854,23.1700675 C84.4496901,23.398082 85.6488321,23.8329928 86.6463573,24.2626241 C87.8454993,24.6975349 88.848304,24.9255494 89.6494919,25.1482843 L91.2571471,25.3921373 L98.5450406,9.03906 L96.3430939,8.37613472 C94.1411472,7.71320944 91.7375837,7.04500464 89.3287406,6.57841668 L83.0396719,-7.50736971 L64.417009,-5.17045001 L61.9995969,10.0996348 C59.1400044,11.4370394 56.4767493,12.9813403 54.0098314,14.7325376 L39.6306864,9.11037408 L28.1405163,24.1428804 L37.2891775,36.8912622 C36.2071799,39.6875004 35.5284161,42.4942976 35.0459896,45.5079912 L21.16182,51.8023394 L23.695077,70.6318986 L39.1667787,73.0545903 C40.307846,75.7072864 41.8574264,78.1689247 43.4122864,80.4289462 L37.7901229,94.8080912 L52.8226291,106.298261 L65.571011,97.1496001 C68.1656323,98.2263181 70.9724295,98.905082 73.7845063,99.382229 L80.073575,113.468015 L98.6962378,111.131096 L101.11365,95.8610109 C103.973242,94.5236063 106.838114,92.9845849 109.310312,91.0317707 L111.16182,89.6679685 L99.4026989,76.4477192 L97.9649834,77.4188468 Z M98.4792971,92.2382135 L97.4606538,92.6150496 L95.0643598,107.078667 L82.3097035,108.762226 L76.4080298,95.2918487 L75.1983288,95.2601716 C71.9830183,94.7724655 68.778267,93.8815258 65.7804119,92.7942487 L64.7828868,92.3646174 L52.8568109,100.929546 L42.5733569,92.993571 L47.7711687,79.4103342 L46.991099,78.3811319 C45.0435643,75.7073177 43.2976465,73.0387831 41.9655215,69.9775738 L41.5886854,68.9589305 L26.9234511,66.5573569 L25.2398926,53.8027006 L38.5086526,47.8957475 L38.7419466,46.691326 C39.2349322,43.2743987 40.1258719,40.0696473 41.2184285,36.8701754 L41.6480598,35.8726502 L33.0778515,24.1481912 L41.0085472,14.0663541 L54.5917839,19.2641659 L55.4140899,18.6804334 C58.0931836,16.531282 61.1649519,14.7959232 64.4277781,13.4690777 L65.4464213,13.0922416 L67.8427154,-1.37137581 L80.7989886,-3.04965478 L86.7059417,10.2191052 L87.7087464,10.4471197 C89.5180184,10.6962522 91.322011,11.1470016 92.9243867,11.5924715 L88.8560881,20.5649184 C87.8532835,20.336904 86.6541414,19.9019932 85.4549994,19.4670823 C84.8554284,19.2496269 84.2558574,19.0321715 83.8526237,19.0216125 C83.4546696,18.8094366 83.0514359,18.7988775 82.4465854,18.783039 C73.1722106,18.5401809 64.8056091,22.1544405 58.5987182,28.0445601 C52.3865477,34.1362965 48.5357045,42.5091725 48.287567,51.9851641 C48.0394294,61.4611557 51.6484095,70.029374 57.3316327,76.4326023 C63.2164728,82.8411101 71.3824524,86.8882906 80.6621066,86.9295318 C84.089593,87.0192837 87.5381974,86.3025682 90.8010235,84.9757227 C93.4484401,84.0362722 96.1064157,82.6935881 98.3558781,81.5419618 L104.819171,88.9743924 C102.972942,90.1365778 100.72348,91.2882041 98.4792971,92.2382135 Z" id="path-2"></path>
        <filter x="-50%" y="-50%" width="200%" height="200%" filterUnits="objectBoundingBox" id="filter-3">
            <feOffset dx="0" dy="2" in="SourceAlpha" result="shadowOffsetOuter1"></feOffset>
            <feGaussianBlur stdDeviation="2" in="shadowOffsetOuter1" result="shadowBlurOuter1"></feGaussianBlur>
            <feColorMatrix values="0 0 0 0 0   0 0 0 0 0   0 0 0 0 0  0 0 0 0.5 0" type="matrix" in="shadowBlurOuter1"></feColorMatrix>
        </filter>
        <linearGradient x1="100%" y1="34.8676603%" x2="0%" y2="57.7779495%" id="linearGradient-4">
            <stop stop-color="#FFE656" offset="0%"></stop>
            <stop stop-color="#FF5069" offset="26.3131161%"></stop>
            <stop stop-color="#FF2F8C" offset="65.0233253%"></stop>
            <stop stop-color="#FF20DA" offset="100%"></stop>
        </linearGradient>
        <path d="M58.6141533,13.143979 C65.9982215,18.0666911 71.3311596,26.0660983 72.7669507,35.5012966 C72.9720637,37.1422006 73.1771767,38.5779917 73.1771767,40.2188957 C73.1771767,48.0131899 70.3055946,55.3972582 65.5879955,61.1404223 L60.2550573,57.0381622 C64.1522044,52.5256761 66.4084475,46.5773989 66.4084475,40.2188957 C66.4084475,38.9882177 66.4084475,37.7575397 66.2033345,36.5268616 C64.9726564,28.9376804 60.6652833,22.5791772 54.7170062,18.6820301 L58.6141533,13.143979 Z M95.5344943,32.2194885 C95.9447203,34.8859576 96.1498333,37.5524267 96.3549463,40.4240087 C96.3549463,53.3461281 91.8424602,65.6529085 84.253279,75.2932197 L78.9203408,71.1909596 C85.68907,62.5762134 89.5862171,51.9103371 89.5862171,40.4240087 C89.5862171,38.1677657 89.3811041,35.7064096 88.9708781,33.2450535 C86.9197481,19.2973691 79.1254538,7.40081479 68.4595775,0.016746582 L72.3567247,-5.52130458 C84.458392,3.09344167 93.2782513,16.220674 95.5344943,32.2194885 Z M44.8715819,32.0143755 C45.8971469,32.6297145 46.9227119,33.2450535 47.948277,34.0655056 C49.178955,35.5012966 49.999407,37.1422006 50.20452,38.9882177 L50.20452,40.4240087 C50.20452,43.0904778 48.973842,45.7569469 47.1278249,47.3978509 L38.5130787,40.8342347 L44.8715819,32.0143755 Z" id="path-5"></path>
        <filter x="-50%" y="-50%" width="200%" height="200%" filterUnits="objectBoundingBox" id="filter-6">
            <feOffset dx="-3" dy="5" in="SourceAlpha" result="shadowOffsetOuter1"></feOffset>
            <feGaussianBlur stdDeviation="1" in="shadowOffsetOuter1" result="shadowBlurOuter1"></feGaussianBlur>
            <feColorMatrix values="0 0 0 0 0   0 0 0 0 0   0 0 0 0 0  0 0 0 0.259737319 0" type="matrix" in="shadowBlurOuter1"></feColorMatrix>
        </filter>
    </defs>
    <g id="Page-1" stroke="none" stroke-width="1" fill="none" fill-rule="evenodd">
        <polygon id="hexagon" fill="#181743" points="0 62.6796875 115 0 230 62.6796875 230 186.679688 115 249.414062 0 186.679688"></polygon>
        <g id="Group" transform="translate(47.000000, 58.000000)" fill-rule="nonzero">
            <g id="Shape" transform="translate(0.000000, 30.000000)">
                <g transform="translate(66.161820, 52.980323) rotate(278.000000) translate(-66.161820, -52.980323) ">
                    <use fill="black" fill-opacity="1" filter="url(#filter-3)" xlink:href="#path-2"></use>
                    <use fill="url(#linearGradient-1)" fill-rule="evenodd" xlink:href="#path-2"></use>
                </g>
            </g>
            <g id="Combined-Shape" transform="translate(67.434013, 34.885958) rotate(279.000000) translate(-67.434013, -34.885958) ">
                <use fill="black" fill-opacity="1" filter="url(#filter-6)" xlink:href="#path-5"></use>
                <use fill="url(#linearGradient-4)" fill-rule="evenodd" xlink:href="#path-5"></use>
            </g>
        </g>
    </g>
</svg>